<?xml version="1.0"?>
<svg xmlns="http://www.w3.org/2000/svg" xmlns:xlink="http://www.w3.org/1999/xlink" xmlns:svgjs="http://svgjs.com/svgjs" version="1.1" width="512" height="512" x="0" y="0" viewBox="0 0 464 464" style="enable-background:new 0 0 512 512" xml:space="preserve" class=""><g><path xmlns="http://www.w3.org/2000/svg" d="m340 0c-44.773438.00390625-86.066406 24.164062-108 63.199219-21.933594-39.035157-63.226562-63.19531275-108-63.199219-68.480469 0-124 63.519531-124 132 0 172 232 292 232 292s232-120 232-292c0-68.480469-55.519531-132-124-132zm0 0" fill="#cf5e87" data-original="#ff6243" style="" class=""/><path xmlns="http://www.w3.org/2000/svg" d="m32 132c0-63.359375 47.550781-122.359375 108.894531-130.847656-5.597656-.769532-11.242187-1.15625025-16.894531-1.152344-68.480469 0-124 63.519531-124 132 0 172 232 292 232 292s6-3.113281 16-8.992188c-52.414062-30.824218-216-138.558593-216-283.007812zm0 0" fill="#da2f6d" data-original="#ff5023" style="" class=""/></g></svg>
