<?xml version="1.0"?>
<svg xmlns="http://www.w3.org/2000/svg" xmlns:xlink="http://www.w3.org/1999/xlink" xmlns:svgjs="http://svgjs.com/svgjs" version="1.1" width="512" height="512" x="0" y="0" viewBox="0 0 512 512" style="enable-background:new 0 0 512 512" xml:space="preserve" class=""><g>
<rect xmlns="http://www.w3.org/2000/svg" x="336" y="339" style="" width="166" height="163" fill="#fd3c65" data-original="#fd3c65"/>
<g xmlns="http://www.w3.org/2000/svg">
	<polygon style="" points="345.76,79.3 300.68,123.24 311.32,188.29 289.76,176.95 255.61,158.99 199.89,188.29    210.53,123.24 165.45,79.3 227.75,70.25 255.61,10 283.46,70.25  " fill="#75c984" data-original="#fec761" class=""/>
	<path style="" d="M336,339v163H176V299v-63h160V339z" fill="#75c984" data-original="#fec761" class=""/>
</g>
<rect xmlns="http://www.w3.org/2000/svg" x="10" y="299" style="" width="166" height="203" fill="#ad7acf" data-original="#ad7acf"/>
<path xmlns="http://www.w3.org/2000/svg" d="M216,449c-5.52,0-10,4.48-10,10s4.48,10,10,10s10-4.48,10-10S221.52,449,216,449z" fill="#000000" data-original="#000000" style=""/>
<path xmlns="http://www.w3.org/2000/svg" d="M276,369c5.523,0,10-4.477,10-10s-4.477-10-10-10h-10v-70c0-5.523-4.477-10-10-10h-20c-5.523,0-10,4.477-10,10  s4.477,10,10,10h10v60h-10c-5.523,0-10,4.477-10,10s4.477,10,10,10H276z" fill="#000000" data-original="#000000" style=""/>
<path xmlns="http://www.w3.org/2000/svg" d="M113,409c5.523,0,10-4.477,10-10v-40c0-5.523-4.477-10-10-10H73c-5.523,0-10,4.477-10,10s4.477,10,10,10h30v20H73  c-5.523,0-10,4.477-10,10v40c0,5.523,4.477,10,10,10h40c5.523,0,10-4.477,10-10s-4.477-10-10-10H83v-20H113z" fill="#000000" data-original="#000000" style=""/>
<path xmlns="http://www.w3.org/2000/svg" d="M399,409c-5.523,0-10,4.477-10,10s4.477,10,10,10h30v20h-30c-5.523,0-10,4.477-10,10s4.477,10,10,10h40  c5.523,0,10-4.477,10-10v-80c0-5.523-4.477-10-10-10h-40c-5.523,0-10,4.477-10,10s4.477,10,10,10h30v20H399z" fill="#000000" data-original="#000000" style=""/>
<path xmlns="http://www.w3.org/2000/svg" d="M502,329H346v-93c0-5.523-4.477-10-10-10H176c-5.523,0-10,4.477-10,10v53H10c-5.523,0-10,4.477-10,10v203  c0,5.522,4.477,10,10,10c32.041,0,472.515,0,492,0c5.523,0,10-4.478,10-10V339C512,333.477,507.523,329,502,329z M20,309h146v183H20  V309z M186,246h140v246H186V246z M492,492H346V349h146V492z" fill="#000000" data-original="#000000" style=""/>
<path xmlns="http://www.w3.org/2000/svg" d="M199.82,126.766l-9.799,59.91c-0.612,3.743,0.945,7.51,4.022,9.728c3.078,2.217,7.145,2.503,10.5,0.738l51.065-26.853  l51.055,26.852c1.464,0.77,3.062,1.149,4.654,1.149c2.06,0,4.111-0.636,5.847-1.887c3.077-2.217,4.635-5.984,4.023-9.728  l-9.799-59.91l41.35-40.305c2.726-2.657,3.707-6.631,2.531-10.251c-1.177-3.62-4.306-6.259-8.073-6.806l-56.935-8.271L264.687,5.804  C263.051,2.266,259.509,0,255.61,0l0,0c-3.897,0-7.441,2.265-9.077,5.803l-25.585,55.331l-56.936,8.271  c-3.767,0.547-6.896,3.186-8.073,6.806c-1.176,3.62-0.195,7.594,2.531,10.251L199.82,126.766z M229.187,80.146  c3.346-0.486,6.22-2.63,7.639-5.699l18.782-40.618l18.774,40.616c1.419,3.07,4.293,5.214,7.64,5.7l42.247,6.137L293.7,116.079  c-2.337,2.278-3.416,5.554-2.889,8.775l7.4,45.242l-37.947-19.957c-2.914-1.532-6.395-1.532-9.309,0l-37.957,19.959l7.4-45.244  c0.527-3.221-0.551-6.497-2.889-8.775L186.94,86.283L229.187,80.146z" fill="#000000" data-original="#000000" style=""/>
<path xmlns="http://www.w3.org/2000/svg" d="M296,449h-40c-5.523,0-10,4.477-10,10s4.477,10,10,10h40c5.523,0,10-4.477,10-10S301.523,449,296,449z" fill="#000000" data-original="#000000" style=""/>
<g xmlns="http://www.w3.org/2000/svg">
</g>
<g xmlns="http://www.w3.org/2000/svg">
</g>
<g xmlns="http://www.w3.org/2000/svg">
</g>
<g xmlns="http://www.w3.org/2000/svg">
</g>
<g xmlns="http://www.w3.org/2000/svg">
</g>
<g xmlns="http://www.w3.org/2000/svg">
</g>
<g xmlns="http://www.w3.org/2000/svg">
</g>
<g xmlns="http://www.w3.org/2000/svg">
</g>
<g xmlns="http://www.w3.org/2000/svg">
</g>
<g xmlns="http://www.w3.org/2000/svg">
</g>
<g xmlns="http://www.w3.org/2000/svg">
</g>
<g xmlns="http://www.w3.org/2000/svg">
</g>
<g xmlns="http://www.w3.org/2000/svg">
</g>
<g xmlns="http://www.w3.org/2000/svg">
</g>
<g xmlns="http://www.w3.org/2000/svg">
</g>
</g></svg>
