<?xml version="1.0"?>
<svg xmlns="http://www.w3.org/2000/svg" xmlns:xlink="http://www.w3.org/1999/xlink" xmlns:svgjs="http://svgjs.com/svgjs" version="1.1" width="512" height="512" x="0" y="0" viewBox="0 0 24 24" style="enable-background:new 0 0 512 512" xml:space="preserve" class=""><g><path xmlns="http://www.w3.org/2000/svg" d="m22.25 4h-16.5c-.246 0-.478.121-.617.324l-5 7.25c-.177.256-.177.596 0 .852l5 7.25c.139.203.371.324.617.324h16.5c.965 0 1.75-.785 1.75-1.75v-12.5c0-.965-.785-1.75-1.75-1.75z" fill="#107fd6" data-original="#00bcd4" style="" class=""/><path xmlns="http://www.w3.org/2000/svg" d="m22.25 20h-16.5c-.247 0-.478-.121-.617-.324l-5-7.25c-.177-.256-.177-.596 0-.852l5-7.25c.139-.203.37-.324.617-.324h16.5c.965 0 1.75.785 1.75 1.75v12.5c0 .965-.785 1.75-1.75 1.75zm-16.106-1.5h16.106c.138 0 .25-.112.25-.25v-12.5c0-.138-.112-.25-.25-.25h-16.106l-4.483 6.5z" fill="#000000" data-original="#000000" style="" class=""/><path xmlns="http://www.w3.org/2000/svg" d="m20.036 16.285c-.192 0-.384-.073-.53-.22l-7.071-7.07c-.293-.293-.293-.768 0-1.061s.768-.293 1.061 0l7.071 7.07c.293.293.293.768 0 1.061-.148.147-.339.22-.531.22z" fill="#000000" data-original="#000000" style="" class=""/><path xmlns="http://www.w3.org/2000/svg" d="m12.964 16.285c-.192 0-.384-.073-.53-.22-.293-.293-.293-.768 0-1.061l7.071-7.07c.293-.293.768-.293 1.061 0s.293.768 0 1.061l-7.071 7.07c-.147.147-.339.22-.531.22z" fill="#000000" data-original="#000000" style="" class=""/></g></svg>
