<svg id="Layer_1" enable-background="new 0 0 128 128" height="512" viewBox="0 0 128 128" width="512" xmlns="http://www.w3.org/2000/svg"><g><g><circle cx="66" cy="66" fill="#e6e7e8" r="52.529"/></g><g><g><g><g><circle cx="62" cy="62" fill="#fa759e" r="51.529"/></g><g><path d="m62 13.47c27.91 0 50.693 22.309 51.491 50.03.014-.5.038-.997.038-1.5 0-28.413-23.116-51.53-51.53-51.53s-51.528 23.117-51.528 51.53c0 .503.024 1 .038 1.5.798-27.721 23.581-50.03 51.491-50.03z" fill="#fff"/></g></g><g><g><path d="m41.423 48.049c0-2.606.837-5.247 2.511-7.922 1.673-2.676 4.115-4.891 7.325-6.647 3.21-1.755 6.954-2.633 11.234-2.633 3.978 0 7.491.734 10.536 2.201 3.045 1.468 5.397 3.465 7.057 5.988 1.66 2.525 2.49 5.268 2.49 8.231 0 2.333-.473 4.377-1.42 6.132-.947 1.756-2.072 3.271-3.374 4.547-1.304 1.275-3.642 3.422-7.016 6.44-.933.851-1.681 1.599-2.243 2.243s-.981 1.234-1.256 1.769-.487 1.07-.638 1.605-.377 1.475-.678 2.819c-.521 2.854-2.154 4.28-4.897 4.28-1.427 0-2.628-.465-3.601-1.398-.974-.933-1.461-2.319-1.461-4.156 0-2.305.356-4.301 1.07-5.988.712-1.688 1.659-3.168 2.839-4.445 1.179-1.276 2.771-2.791 4.774-4.547 1.755-1.536 3.024-2.695 3.807-3.477.782-.782 1.441-1.652 1.976-2.614.535-.959.802-2.002.802-3.127 0-2.194-.816-4.047-2.448-5.556-1.633-1.508-3.739-2.263-6.318-2.263-3.018 0-5.24.762-6.666 2.283-1.427 1.523-2.633 3.765-3.621 6.729-.933 3.101-2.703 4.65-5.309 4.65-1.537 0-2.833-.542-3.889-1.626-1.058-1.083-1.586-2.256-1.586-3.518z" fill="#ffd7e5"/></g></g></g><g><path d="m61.217 80.49c-3.418 0-6.188 2.771-6.188 6.189s2.771 6.188 6.188 6.188 6.188-2.771 6.188-6.188c0-3.418-2.771-6.189-6.188-6.189z" fill="#ffd7e5"/><g fill="#3a2c60"><path d="m92.267 102.437c-1.237.93-2.534 1.812-3.853 2.623-.47.289-.617.905-.327 1.376.188.307.517.476.853.476.179 0 .359-.048.523-.148 1.37-.843 2.718-1.761 4.005-2.727.441-.332.53-.959.199-1.4s-.959-.529-1.4-.2z"/><path d="m62 9.471c-28.965 0-52.529 23.564-52.529 52.529s23.564 52.529 52.529 52.529c7.701 0 15.126-1.636 22.068-4.862.5-.233.718-.828.485-1.329-.233-.5-.826-.719-1.329-.485-6.676 3.104-13.817 4.677-21.225 4.677-27.862 0-50.529-22.667-50.529-50.529s22.668-50.53 50.53-50.53 50.529 22.667 50.529 50.529c0 14.024-5.633 27.067-15.861 36.729-.401.379-.42 1.012-.04 1.413.378.4 1.011.419 1.413.04 10.633-10.042 16.488-23.602 16.488-38.182 0-28.965-23.564-52.529-52.529-52.529z"/><path d="m71.434 65.132c3.365-3.01 5.736-5.187 7.048-6.471 1.369-1.34 2.565-2.95 3.556-4.787 1.022-1.896 1.54-4.119 1.54-6.607 0-3.147-.894-6.102-2.655-8.78-1.753-2.665-4.262-4.798-7.459-6.34-3.168-1.526-6.859-2.3-10.97-2.3-4.43 0-8.37.928-11.715 2.757-3.348 1.832-5.936 4.185-7.691 6.993-1.768 2.823-2.664 5.667-2.664 8.452 0 1.527.629 2.945 1.868 4.216 1.246 1.28 2.796 1.929 4.605 1.929 2.122 0 4.933-.931 6.259-5.334.936-2.812 2.08-4.951 3.401-6.362 1.224-1.305 3.221-1.967 5.937-1.967 2.339 0 4.184.653 5.639 1.996 1.432 1.325 2.127 2.902 2.127 4.822 0 .963-.221 1.827-.675 2.642-.485.873-1.095 1.678-1.81 2.393-.772.772-2.037 1.928-3.759 3.433-2.029 1.78-3.661 3.335-4.849 4.621-1.256 1.358-2.273 2.951-3.025 4.733-.763 1.8-1.149 3.946-1.149 6.378 0 2.113.596 3.755 1.769 4.878 1.159 1.112 2.604 1.677 4.293 1.677 3.238 0 5.271-1.764 5.873-5.061.294-1.313.518-2.243.664-2.766.133-.47.323-.947.566-1.422.236-.459.612-.986 1.118-1.566.54-.62 1.269-1.348 2.158-2.157zm-3.665.841c-.621.712-1.076 1.356-1.391 1.97-.304.591-.543 1.193-.712 1.791-.157.559-.39 1.524-.698 2.91-.438 2.393-1.645 3.459-3.914 3.459-1.172 0-2.123-.366-2.909-1.121-.775-.742-1.152-1.865-1.152-3.434 0-2.162.333-4.046.991-5.6.662-1.568 1.555-2.967 2.652-4.154 1.141-1.235 2.722-2.74 4.697-4.474 1.754-1.534 3.052-2.719 3.855-3.522.846-.846 1.567-1.8 2.143-2.834.616-1.104.928-2.32.928-3.615 0-2.473-.932-4.589-2.77-6.291-1.817-1.677-4.171-2.527-6.996-2.527-3.291 0-5.779.875-7.396 2.6-1.521 1.623-2.813 4.011-3.85 7.125-1.063 3.53-2.992 3.938-4.352 3.938-1.268 0-2.305-.433-3.173-1.324-.875-.897-1.301-1.819-1.301-2.82 0-2.404.794-4.891 2.359-7.392 1.572-2.515 3.913-4.634 6.956-6.3 3.047-1.666 6.665-2.511 10.755-2.511 3.808 0 7.207.707 10.102 2.102 2.865 1.383 5.105 3.279 6.656 5.638 1.544 2.347 2.326 4.931 2.326 7.681 0 2.153-.438 4.058-1.3 5.658-.896 1.659-1.97 3.108-3.194 4.307-1.291 1.264-3.64 3.42-6.99 6.416-.948.865-1.731 1.647-2.322 2.324z"/><path d="m61.217 79.49c-3.964 0-7.188 3.225-7.188 7.188s3.225 7.189 7.188 7.189 7.188-3.226 7.188-7.189-3.224-7.188-7.188-7.188zm0 12.378c-2.861 0-5.188-2.328-5.188-5.189s2.327-5.188 5.188-5.188 5.188 2.327 5.188 5.188-2.327 5.189-5.188 5.189z"/></g></g></g></g></svg>